<svg xmlns="http://www.w3.org/2000/svg" width="40" height="40" viewBox="0 0 40 40">
  <g fill="none" fill-rule="evenodd">
    <path fill="#0CB0F2" d="M34.6253737,25.8174056 C34.5369626,25.7441929 28.723444,20.0295841 28.723444,20.0295841 C28.723444,20.0295841 33.1361384,15.2446774 34.3100409,14.0461942 C34.654844,13.6931682 34.9613357,13.2909993 35.2187101,12.8396876 C36.8179681,10.0305232 35.8837578,6.43005889 33.1312267,4.79731354 C31.0869664,3.5847895 28.615386,3.79941327 26.8235884,5.14131333 C26.5269202,5.36195459 26.2498989,5.61468913 25.9954715,5.89751111 C25.8294551,6.08104453 19.7340034,11.7715833 14.433269,16.709936 L24.3834431,23.1476463 C24.3834431,23.1476463 13.9263789,35.1214466 13.9106613,35.1334816 C13.2966956,35.5787758 12.6483478,35.8525715 12,36 C12.1208285,35.9889679 12.2426393,35.9929796 12.3634677,35.97593 C14.4352336,35.6610148 32.0712763,32.6181712 32.9160931,32.4627194 C33.9593437,32.2691568 34.9171302,31.6684108 35.4918021,30.6574727 C36.4299417,29.0086807 36.0271802,26.9837956 34.6253737,25.8174056"/>
    <path fill="#FF318C" d="M24.9788,17.9667 C24.7918,16.7477 24.1488,15.7127 23.2498,15.0067 C22.2738,14.2407 14.9118,6.5497 14.0428,5.6937 C12.7698,4.4377 10.9378,3.7777 9.0338,4.0687 C5.8298,4.5577 3.6298,7.5497 4.1198,10.7517 C4.3638,12.3537 5.2348,13.7037 6.4448,14.5927 C7.6548,15.4827 16.9798,21.9077 17.5418,22.3467 C18.5088,23.1007 19.7678,23.4727 21.0788,23.2727 C23.6208,22.8847 25.3668,20.5087 24.9788,17.9667"/>
    <path fill="#905CFB" d="M14.5135,35.0429 C14.5305,35.0309 25.1755,23.0919 25.1755,23.0919 L14.4555,16.2989 C10.6505,19.7719 7.1565,22.9549 6.3295,23.6999 C5.8005,24.1779 5.3345,24.7439 4.9565,25.3949 C2.9975,28.7649 4.1425,33.0849 7.5135,35.0429 C8.9045,35.8519 11.9965,36.8319 14.5135,35.0429"/>
    <g transform="translate(10 10)">
      <polygon fill="#000" points="0 20 20 20 20 0 0 0"/>
      <polygon fill="#FFF" points="2 17 9 17 9 16 2 16"/>
    </g>
    <g fill="#FFF" transform="translate(11 13)">
      <polygon points="5.977 0 4.012 3.211 2.081 0 0 0 3.11 4.846 3.11 8 4.89 8 4.89 4.811 8 0"/>
      <polygon points="9 0 9 1.622 11.571 1.622 11.571 8 13.429 8 13.429 1.622 16 1.622 16 0"/>
    </g>
  </g>
</svg>
